<svg id="visual" viewBox="0 0 960 60" width="960" height="60" xmlns="http://www.w3.org/2000/svg" xmlns:xlink="http://www.w3.org/1999/xlink" version="1.1"><rect x="0" y="0" width="960" height="60" fill="#FFFFFF"></rect><path d="M0 48L12.3 46.5C24.7 45 49.3 42 74 40.7C98.7 39.3 123.3 39.7 148 37C172.7 34.3 197.3 28.7 221.8 25.8C246.3 23 270.7 23 295.2 28.8C319.7 34.7 344.3 46.3 369 51.3C393.7 56.3 418.3 54.7 443 51.8C467.7 49 492.3 45 517 39.3C541.7 33.7 566.3 26.3 591 24.7C615.7 23 640.3 27 664.8 33C689.3 39 713.7 47 738.2 49.2C762.7 51.3 787.3 47.7 812 43.2C836.7 38.7 861.3 33.3 886 27.5C910.7 21.7 935.3 15.3 947.7 12.2L960 9L960 61L947.7 61C935.3 61 910.7 61 886 61C861.3 61 836.7 61 812 61C787.3 61 762.7 61 738.2 61C713.7 61 689.3 61 664.8 61C640.3 61 615.7 61 591 61C566.3 61 541.7 61 517 61C492.3 61 467.7 61 443 61C418.3 61 393.7 61 369 61C344.3 61 319.7 61 295.2 61C270.7 61 246.3 61 221.8 61C197.3 61 172.7 61 148 61C123.3 61 98.7 61 74 61C49.3 61 24.7 61 12.3 61L0 61Z" fill="#f1ffe8"></path><path d="M0 37L12.3 32C24.7 27 49.3 17 74 16.3C98.7 15.7 123.3 24.3 148 24.5C172.7 24.7 197.3 16.3 221.8 20.5C246.3 24.7 270.7 41.3 295.2 45.5C319.7 49.7 344.3 41.3 369 41.5C393.7 41.7 418.3 50.3 443 45.7C467.7 41 492.3 23 517 18.7C541.7 14.3 566.3 23.7 591 27.2C615.7 30.7 640.3 28.3 664.8 26C689.3 23.7 713.7 21.3 738.2 20.7C762.7 20 787.3 21 812 27.2C836.7 33.3 861.3 44.7 886 43.8C910.7 43 935.3 30 947.7 23.5L960 17L960 61L947.7 61C935.3 61 910.7 61 886 61C861.3 61 836.7 61 812 61C787.3 61 762.7 61 738.2 61C713.7 61 689.3 61 664.8 61C640.3 61 615.7 61 591 61C566.3 61 541.7 61 517 61C492.3 61 467.7 61 443 61C418.3 61 393.7 61 369 61C344.3 61 319.7 61 295.2 61C270.7 61 246.3 61 221.8 61C197.3 61 172.7 61 148 61C123.3 61 98.7 61 74 61C49.3 61 24.7 61 12.3 61L0 61Z" fill="#eefee6"></path><path d="M0 19L12.3 23.3C24.7 27.7 49.3 36.3 74 35.8C98.7 35.3 123.3 25.7 148 21.2C172.7 16.7 197.3 17.3 221.8 22.2C246.3 27 270.7 36 295.2 38.5C319.7 41 344.3 37 369 33.7C393.7 30.3 418.3 27.7 443 26.7C467.7 25.7 492.3 26.3 517 24.7C541.7 23 566.3 19 591 22.8C615.7 26.7 640.3 38.3 664.8 45C689.3 51.7 713.7 53.3 738.2 52.8C762.7 52.3 787.3 49.7 812 43.3C836.7 37 861.3 27 886 26.2C910.7 25.3 935.3 33.7 947.7 37.8L960 42L960 61L947.7 61C935.3 61 910.7 61 886 61C861.3 61 836.7 61 812 61C787.3 61 762.7 61 738.2 61C713.7 61 689.3 61 664.8 61C640.3 61 615.7 61 591 61C566.3 61 541.7 61 517 61C492.3 61 467.7 61 443 61C418.3 61 393.7 61 369 61C344.3 61 319.7 61 295.2 61C270.7 61 246.3 61 221.8 61C197.3 61 172.7 61 148 61C123.3 61 98.7 61 74 61C49.3 61 24.7 61 12.3 61L0 61Z" fill="#ebfde3"></path><path d="M0 53L12.3 48.5C24.7 44 49.3 35 74 30.8C98.7 26.7 123.3 27.3 148 32.3C172.7 37.3 197.3 46.7 221.8 44.3C246.3 42 270.7 28 295.2 20.8C319.7 13.7 344.3 13.3 369 19.8C393.7 26.3 418.3 39.7 443 44.3C467.7 49 492.3 45 517 40.3C541.7 35.7 566.3 30.3 591 27C615.7 23.7 640.3 22.3 664.8 23.8C689.3 25.3 713.7 29.7 738.2 35C762.7 40.3 787.3 46.7 812 43.7C836.7 40.7 861.3 28.3 886 24.8C910.7 21.3 935.3 26.7 947.7 29.3L960 32L960 61L947.7 61C935.3 61 910.7 61 886 61C861.3 61 836.7 61 812 61C787.3 61 762.7 61 738.2 61C713.7 61 689.3 61 664.8 61C640.3 61 615.7 61 591 61C566.3 61 541.7 61 517 61C492.3 61 467.7 61 443 61C418.3 61 393.7 61 369 61C344.3 61 319.7 61 295.2 61C270.7 61 246.3 61 221.8 61C197.3 61 172.7 61 148 61C123.3 61 98.7 61 74 61C49.3 61 24.7 61 12.3 61L0 61Z" fill="#e9fce1"></path><path d="M0 58L12.3 56C24.7 54 49.3 50 74 49.2C98.7 48.3 123.3 50.7 148 48.2C172.7 45.7 197.3 38.3 221.8 37.5C246.3 36.7 270.7 42.3 295.2 43.8C319.7 45.3 344.3 42.7 369 39.3C393.7 36 418.3 32 443 28.7C467.7 25.3 492.3 22.7 517 22C541.7 21.3 566.3 22.7 591 28.5C615.7 34.3 640.3 44.7 664.8 45C689.3 45.3 713.7 35.7 738.2 33.8C762.7 32 787.3 38 812 37.3C836.7 36.7 861.3 29.3 886 30.3C910.7 31.3 935.3 40.7 947.7 45.3L960 50L960 61L947.7 61C935.3 61 910.7 61 886 61C861.3 61 836.7 61 812 61C787.3 61 762.7 61 738.2 61C713.7 61 689.3 61 664.8 61C640.3 61 615.7 61 591 61C566.3 61 541.7 61 517 61C492.3 61 467.7 61 443 61C418.3 61 393.7 61 369 61C344.3 61 319.7 61 295.2 61C270.7 61 246.3 61 221.8 61C197.3 61 172.7 61 148 61C123.3 61 98.7 61 74 61C49.3 61 24.7 61 12.3 61L0 61Z" fill="#e6fbdf"></path><path d="M0 23L12.3 28.2C24.7 33.3 49.3 43.7 74 47.7C98.7 51.7 123.3 49.3 148 47.3C172.7 45.3 197.3 43.7 221.8 42.2C246.3 40.7 270.7 39.3 295.2 39C319.7 38.7 344.3 39.3 369 38.8C393.7 38.3 418.3 36.7 443 38.8C467.7 41 492.3 47 517 45.5C541.7 44 566.3 35 591 33.2C615.7 31.3 640.3 36.7 664.8 36.7C689.3 36.7 713.7 31.3 738.2 32.7C762.7 34 787.3 42 812 45.5C836.7 49 861.3 48 886 48.3C910.7 48.7 935.3 50.3 947.7 51.2L960 52L960 61L947.7 61C935.3 61 910.7 61 886 61C861.3 61 836.7 61 812 61C787.3 61 762.7 61 738.2 61C713.7 61 689.3 61 664.8 61C640.3 61 615.7 61 591 61C566.3 61 541.7 61 517 61C492.3 61 467.7 61 443 61C418.3 61 393.7 61 369 61C344.3 61 319.7 61 295.2 61C270.7 61 246.3 61 221.8 61C197.3 61 172.7 61 148 61C123.3 61 98.7 61 74 61C49.3 61 24.7 61 12.3 61L0 61Z" fill="#e3fadd"></path><path d="M0 55L12.3 51.7C24.7 48.3 49.3 41.7 74 39.8C98.7 38 123.3 41 148 42C172.7 43 197.3 42 221.8 43.8C246.3 45.7 270.7 50.3 295.2 50.3C319.7 50.3 344.3 45.7 369 41.2C393.7 36.7 418.3 32.3 443 35.2C467.7 38 492.3 48 517 48.5C541.7 49 566.3 40 591 35.2C615.7 30.3 640.3 29.7 664.8 33.8C689.3 38 713.7 47 738.2 51.2C762.7 55.3 787.3 54.7 812 52.3C836.7 50 861.3 46 886 44C910.7 42 935.3 42 947.7 42L960 42L960 61L947.7 61C935.3 61 910.7 61 886 61C861.3 61 836.7 61 812 61C787.3 61 762.7 61 738.2 61C713.7 61 689.3 61 664.8 61C640.3 61 615.7 61 591 61C566.3 61 541.7 61 517 61C492.3 61 467.7 61 443 61C418.3 61 393.7 61 369 61C344.3 61 319.7 61 295.2 61C270.7 61 246.3 61 221.8 61C197.3 61 172.7 61 148 61C123.3 61 98.7 61 74 61C49.3 61 24.7 61 12.3 61L0 61Z" fill="#dffadb"></path><path d="M0 44L12.3 43.7C24.7 43.3 49.3 42.7 74 40.8C98.7 39 123.3 36 148 37.8C172.7 39.7 197.3 46.3 221.8 47.8C246.3 49.3 270.7 45.7 295.2 42.2C319.7 38.7 344.3 35.3 369 35.5C393.7 35.7 418.3 39.3 443 39.7C467.7 40 492.3 37 517 36C541.7 35 566.3 36 591 36.2C615.7 36.3 640.3 35.7 664.8 35C689.3 34.3 713.7 33.7 738.2 36.7C762.7 39.7 787.3 46.3 812 49.2C836.7 52 861.3 51 886 49C910.7 47 935.3 44 947.7 42.5L960 41L960 61L947.7 61C935.3 61 910.7 61 886 61C861.3 61 836.7 61 812 61C787.3 61 762.7 61 738.2 61C713.7 61 689.3 61 664.8 61C640.3 61 615.7 61 591 61C566.3 61 541.7 61 517 61C492.3 61 467.7 61 443 61C418.3 61 393.7 61 369 61C344.3 61 319.7 61 295.2 61C270.7 61 246.3 61 221.8 61C197.3 61 172.7 61 148 61C123.3 61 98.7 61 74 61C49.3 61 24.7 61 12.3 61L0 61Z" fill="#dcf9d9"></path><path d="M0 49L12.3 49C24.7 49 49.3 49 74 47.2C98.7 45.3 123.3 41.7 148 41.5C172.7 41.3 197.3 44.7 221.8 45.2C246.3 45.7 270.7 43.3 295.2 41.5C319.7 39.7 344.3 38.3 369 40.8C393.7 43.3 418.3 49.7 443 51C467.7 52.3 492.3 48.7 517 48.2C541.7 47.7 566.3 50.3 591 49.2C615.7 48 640.3 43 664.8 41.7C689.3 40.3 713.7 42.7 738.2 42.5C762.7 42.3 787.3 39.7 812 41.7C836.7 43.7 861.3 50.3 886 50.7C910.7 51 935.3 45 947.7 42L960 39L960 61L947.7 61C935.3 61 910.7 61 886 61C861.3 61 836.7 61 812 61C787.3 61 762.7 61 738.2 61C713.7 61 689.3 61 664.8 61C640.3 61 615.7 61 591 61C566.3 61 541.7 61 517 61C492.3 61 467.7 61 443 61C418.3 61 393.7 61 369 61C344.3 61 319.7 61 295.2 61C270.7 61 246.3 61 221.8 61C197.3 61 172.7 61 148 61C123.3 61 98.7 61 74 61C49.3 61 24.7 61 12.3 61L0 61Z" fill="#d9f8d8"></path><path d="M0 43L12.3 44C24.7 45 49.3 47 74 49.3C98.7 51.7 123.3 54.3 148 53.7C172.7 53 197.3 49 221.8 49.3C246.3 49.7 270.7 54.3 295.2 55.2C319.7 56 344.3 53 369 51.7C393.7 50.3 418.3 50.7 443 49.3C467.7 48 492.3 45 517 45.7C541.7 46.3 566.3 50.7 591 50.7C615.7 50.7 640.3 46.3 664.8 45.2C689.3 44 713.7 46 738.2 47C762.7 48 787.3 48 812 49.2C836.7 50.3 861.3 52.7 886 52.7C910.7 52.7 935.3 50.3 947.7 49.2L960 48L960 61L947.7 61C935.3 61 910.7 61 886 61C861.3 61 836.7 61 812 61C787.3 61 762.7 61 738.2 61C713.7 61 689.3 61 664.8 61C640.3 61 615.7 61 591 61C566.3 61 541.7 61 517 61C492.3 61 467.7 61 443 61C418.3 61 393.7 61 369 61C344.3 61 319.7 61 295.2 61C270.7 61 246.3 61 221.8 61C197.3 61 172.7 61 148 61C123.3 61 98.7 61 74 61C49.3 61 24.7 61 12.3 61L0 61Z" fill="#d5f7d6"></path><path d="M0 47L12.3 47.8C24.7 48.7 49.3 50.3 74 51C98.7 51.7 123.3 51.3 148 51C172.7 50.7 197.3 50.3 221.8 51.2C246.3 52 270.7 54 295.2 55.5C319.7 57 344.3 58 369 57C393.7 56 418.3 53 443 52.5C467.7 52 492.3 54 517 54.8C541.7 55.7 566.3 55.3 591 54.3C615.7 53.3 640.3 51.7 664.8 52.2C689.3 52.7 713.7 55.3 738.2 56.5C762.7 57.7 787.3 57.3 812 56C836.7 54.7 861.3 52.3 886 52.2C910.7 52 935.3 54 947.7 55L960 56L960 61L947.7 61C935.3 61 910.7 61 886 61C861.3 61 836.7 61 812 61C787.3 61 762.7 61 738.2 61C713.7 61 689.3 61 664.8 61C640.3 61 615.7 61 591 61C566.3 61 541.7 61 517 61C492.3 61 467.7 61 443 61C418.3 61 393.7 61 369 61C344.3 61 319.7 61 295.2 61C270.7 61 246.3 61 221.8 61C197.3 61 172.7 61 148 61C123.3 61 98.7 61 74 61C49.3 61 24.7 61 12.3 61L0 61Z" fill="#d2f6d4"></path><path d="M0 50L12.3 50.7C24.7 51.3 49.3 52.7 74 53.2C98.7 53.7 123.3 53.3 148 53.3C172.7 53.3 197.3 53.7 221.8 53.5C246.3 53.3 270.7 52.7 295.2 53.5C319.7 54.3 344.3 56.7 369 57.3C393.7 58 418.3 57 443 55.5C467.7 54 492.3 52 517 51.3C541.7 50.7 566.3 51.3 591 51.7C615.7 52 640.3 52 664.8 52.5C689.3 53 713.7 54 738.2 54.2C762.7 54.3 787.3 53.7 812 53.3C836.7 53 861.3 53 886 53.8C910.7 54.7 935.3 56.3 947.7 57.2L960 58L960 61L947.7 61C935.3 61 910.7 61 886 61C861.3 61 836.7 61 812 61C787.3 61 762.7 61 738.2 61C713.7 61 689.3 61 664.8 61C640.3 61 615.7 61 591 61C566.3 61 541.7 61 517 61C492.3 61 467.7 61 443 61C418.3 61 393.7 61 369 61C344.3 61 319.7 61 295.2 61C270.7 61 246.3 61 221.8 61C197.3 61 172.7 61 148 61C123.3 61 98.7 61 74 61C49.3 61 24.7 61 12.3 61L0 61Z" fill="#cef5d3"></path></svg>