<svg id="visual" viewBox="0 0 960 60" width="960" height="60" xmlns="http://www.w3.org/2000/svg" xmlns:xlink="http://www.w3.org/1999/xlink" version="1.1"><rect x="0" y="0" width="960" height="60" fill="#FFFFFF"></rect><path d="M0 56L12.3 54.8C24.7 53.7 49.3 51.3 74 50.5C98.7 49.7 123.3 50.3 148 44.8C172.7 39.3 197.3 27.7 221.8 22C246.3 16.3 270.7 16.7 295.2 16.3C319.7 16 344.3 15 369 21.3C393.7 27.7 418.3 41.3 443 48.8C467.7 56.3 492.3 57.7 517 57.2C541.7 56.7 566.3 54.3 591 52.8C615.7 51.3 640.3 50.7 664.8 47.2C689.3 43.7 713.7 37.3 738.2 35C762.7 32.7 787.3 34.3 812 37.3C836.7 40.3 861.3 44.7 886 41.5C910.7 38.3 935.3 27.7 947.7 22.3L960 17L960 61L947.7 61C935.3 61 910.7 61 886 61C861.3 61 836.7 61 812 61C787.3 61 762.7 61 738.2 61C713.7 61 689.3 61 664.8 61C640.3 61 615.7 61 591 61C566.3 61 541.7 61 517 61C492.3 61 467.7 61 443 61C418.3 61 393.7 61 369 61C344.3 61 319.7 61 295.2 61C270.7 61 246.3 61 221.8 61C197.3 61 172.7 61 148 61C123.3 61 98.7 61 74 61C49.3 61 24.7 61 12.3 61L0 61Z" fill="#d8d5ed"></path><path d="M0 55L12.3 49.5C24.7 44 49.3 33 74 26.3C98.7 19.7 123.3 17.3 148 18C172.7 18.7 197.3 22.3 221.8 23C246.3 23.7 270.7 21.3 295.2 22.7C319.7 24 344.3 29 369 32.5C393.7 36 418.3 38 443 34.3C467.7 30.7 492.3 21.3 517 17.8C541.7 14.3 566.3 16.7 591 19.2C615.7 21.7 640.3 24.3 664.8 25.5C689.3 26.7 713.7 26.3 738.2 31.2C762.7 36 787.3 46 812 47.5C836.7 49 861.3 42 886 35C910.7 28 935.3 21 947.7 17.5L960 14L960 61L947.7 61C935.3 61 910.7 61 886 61C861.3 61 836.7 61 812 61C787.3 61 762.7 61 738.2 61C713.7 61 689.3 61 664.8 61C640.3 61 615.7 61 591 61C566.3 61 541.7 61 517 61C492.3 61 467.7 61 443 61C418.3 61 393.7 61 369 61C344.3 61 319.7 61 295.2 61C270.7 61 246.3 61 221.8 61C197.3 61 172.7 61 148 61C123.3 61 98.7 61 74 61C49.3 61 24.7 61 12.3 61L0 61Z" fill="#d5d2ec"></path><path d="M0 40L12.3 40.7C24.7 41.3 49.3 42.7 74 45.7C98.7 48.7 123.3 53.3 148 50C172.7 46.7 197.3 35.3 221.8 34.3C246.3 33.3 270.7 42.7 295.2 45C319.7 47.3 344.3 42.7 369 35.7C393.7 28.7 418.3 19.3 443 21.2C467.7 23 492.3 36 517 43.3C541.7 50.7 566.3 52.3 591 51.8C615.7 51.3 640.3 48.7 664.8 47.2C689.3 45.7 713.7 45.3 738.2 42.2C762.7 39 787.3 33 812 30.8C836.7 28.7 861.3 30.3 886 31.5C910.7 32.7 935.3 33.3 947.7 33.7L960 34L960 61L947.7 61C935.3 61 910.7 61 886 61C861.3 61 836.7 61 812 61C787.3 61 762.7 61 738.2 61C713.7 61 689.3 61 664.8 61C640.3 61 615.7 61 591 61C566.3 61 541.7 61 517 61C492.3 61 467.7 61 443 61C418.3 61 393.7 61 369 61C344.3 61 319.7 61 295.2 61C270.7 61 246.3 61 221.8 61C197.3 61 172.7 61 148 61C123.3 61 98.7 61 74 61C49.3 61 24.7 61 12.3 61L0 61Z" fill="#d2cfeb"></path><path d="M0 49L12.3 43.3C24.7 37.7 49.3 26.3 74 27.2C98.7 28 123.3 41 148 40.7C172.7 40.3 197.3 26.7 221.8 21C246.3 15.3 270.7 17.7 295.2 20.3C319.7 23 344.3 26 369 27C393.7 28 418.3 27 443 29.7C467.7 32.3 492.3 38.7 517 43.2C541.7 47.7 566.3 50.3 591 48.3C615.7 46.3 640.3 39.7 664.8 34C689.3 28.3 713.7 23.7 738.2 20.8C762.7 18 787.3 17 812 23.7C836.7 30.3 861.3 44.7 886 49.2C910.7 53.7 935.3 48.3 947.7 45.7L960 43L960 61L947.7 61C935.3 61 910.7 61 886 61C861.3 61 836.7 61 812 61C787.3 61 762.7 61 738.2 61C713.7 61 689.3 61 664.8 61C640.3 61 615.7 61 591 61C566.3 61 541.7 61 517 61C492.3 61 467.7 61 443 61C418.3 61 393.7 61 369 61C344.3 61 319.7 61 295.2 61C270.7 61 246.3 61 221.8 61C197.3 61 172.7 61 148 61C123.3 61 98.7 61 74 61C49.3 61 24.7 61 12.3 61L0 61Z" fill="#ceccea"></path><path d="M0 24L12.3 25.3C24.7 26.7 49.3 29.3 74 33.7C98.7 38 123.3 44 148 44.7C172.7 45.3 197.3 40.7 221.8 37.7C246.3 34.7 270.7 33.3 295.2 36.2C319.7 39 344.3 46 369 47C393.7 48 418.3 43 443 38C467.7 33 492.3 28 517 29.3C541.7 30.7 566.3 38.3 591 43.5C615.7 48.7 640.3 51.3 664.8 52.2C689.3 53 713.7 52 738.2 46.8C762.7 41.7 787.3 32.3 812 33.3C836.7 34.3 861.3 45.7 886 46.3C910.7 47 935.3 37 947.7 32L960 27L960 61L947.7 61C935.3 61 910.7 61 886 61C861.3 61 836.7 61 812 61C787.3 61 762.7 61 738.2 61C713.7 61 689.3 61 664.8 61C640.3 61 615.7 61 591 61C566.3 61 541.7 61 517 61C492.3 61 467.7 61 443 61C418.3 61 393.7 61 369 61C344.3 61 319.7 61 295.2 61C270.7 61 246.3 61 221.8 61C197.3 61 172.7 61 148 61C123.3 61 98.7 61 74 61C49.3 61 24.7 61 12.3 61L0 61Z" fill="#cbc9e9"></path><path d="M0 44L12.3 42.3C24.7 40.7 49.3 37.3 74 37.2C98.7 37 123.3 40 148 43.3C172.7 46.7 197.3 50.3 221.8 48.8C246.3 47.3 270.7 40.7 295.2 38.7C319.7 36.7 344.3 39.3 369 43C393.7 46.7 418.3 51.3 443 52.5C467.7 53.7 492.3 51.3 517 45.8C541.7 40.3 566.3 31.7 591 33C615.7 34.3 640.3 45.7 664.8 51.3C689.3 57 713.7 57 738.2 53.7C762.7 50.3 787.3 43.7 812 41.5C836.7 39.3 861.3 41.7 886 42.8C910.7 44 935.3 44 947.7 44L960 44L960 61L947.7 61C935.3 61 910.7 61 886 61C861.3 61 836.7 61 812 61C787.3 61 762.7 61 738.2 61C713.7 61 689.3 61 664.8 61C640.3 61 615.7 61 591 61C566.3 61 541.7 61 517 61C492.3 61 467.7 61 443 61C418.3 61 393.7 61 369 61C344.3 61 319.7 61 295.2 61C270.7 61 246.3 61 221.8 61C197.3 61 172.7 61 148 61C123.3 61 98.7 61 74 61C49.3 61 24.7 61 12.3 61L0 61Z" fill="#c8c6e8"></path><path d="M0 55L12.3 55C24.7 55 49.3 55 74 52.8C98.7 50.7 123.3 46.3 148 45.5C172.7 44.7 197.3 47.3 221.8 50C246.3 52.7 270.7 55.3 295.2 55.8C319.7 56.3 344.3 54.7 369 50.8C393.7 47 418.3 41 443 37.2C467.7 33.3 492.3 31.7 517 35C541.7 38.3 566.3 46.7 591 46.2C615.7 45.7 640.3 36.3 664.8 34.2C689.3 32 713.7 37 738.2 41.8C762.7 46.7 787.3 51.3 812 49.8C836.7 48.3 861.3 40.7 886 36.2C910.7 31.7 935.3 30.3 947.7 29.7L960 29L960 61L947.7 61C935.3 61 910.7 61 886 61C861.3 61 836.7 61 812 61C787.3 61 762.7 61 738.2 61C713.7 61 689.3 61 664.8 61C640.3 61 615.7 61 591 61C566.3 61 541.7 61 517 61C492.3 61 467.7 61 443 61C418.3 61 393.7 61 369 61C344.3 61 319.7 61 295.2 61C270.7 61 246.3 61 221.8 61C197.3 61 172.7 61 148 61C123.3 61 98.7 61 74 61C49.3 61 24.7 61 12.3 61L0 61Z" fill="#c4c4e8"></path><path d="M0 58L12.3 58.2C24.7 58.3 49.3 58.7 74 55.2C98.7 51.7 123.3 44.3 148 43.8C172.7 43.3 197.3 49.7 221.8 53.2C246.3 56.7 270.7 57.3 295.2 53.8C319.7 50.3 344.3 42.7 369 41.5C393.7 40.3 418.3 45.7 443 45.8C467.7 46 492.3 41 517 38.2C541.7 35.3 566.3 34.7 591 36.5C615.7 38.3 640.3 42.7 664.8 46.7C689.3 50.7 713.7 54.3 738.2 54.7C762.7 55 787.3 52 812 50.8C836.7 49.7 861.3 50.3 886 50C910.7 49.7 935.3 48.3 947.7 47.7L960 47L960 61L947.7 61C935.3 61 910.7 61 886 61C861.3 61 836.7 61 812 61C787.3 61 762.7 61 738.2 61C713.7 61 689.3 61 664.8 61C640.3 61 615.7 61 591 61C566.3 61 541.7 61 517 61C492.3 61 467.7 61 443 61C418.3 61 393.7 61 369 61C344.3 61 319.7 61 295.2 61C270.7 61 246.3 61 221.8 61C197.3 61 172.7 61 148 61C123.3 61 98.7 61 74 61C49.3 61 24.7 61 12.3 61L0 61Z" fill="#c1c1e7"></path><path d="M0 52L12.3 50.3C24.7 48.7 49.3 45.3 74 44.8C98.7 44.3 123.3 46.7 148 49.3C172.7 52 197.3 55 221.8 55.7C246.3 56.3 270.7 54.7 295.2 51.7C319.7 48.7 344.3 44.3 369 42.8C393.7 41.3 418.3 42.7 443 42C467.7 41.3 492.3 38.7 517 41C541.7 43.3 566.3 50.7 591 50.8C615.7 51 640.3 44 664.8 44C689.3 44 713.7 51 738.2 53.7C762.7 56.3 787.3 54.7 812 54.2C836.7 53.7 861.3 54.3 886 52.5C910.7 50.7 935.3 46.3 947.7 44.2L960 42L960 61L947.7 61C935.3 61 910.7 61 886 61C861.3 61 836.7 61 812 61C787.3 61 762.7 61 738.2 61C713.7 61 689.3 61 664.8 61C640.3 61 615.7 61 591 61C566.3 61 541.7 61 517 61C492.3 61 467.7 61 443 61C418.3 61 393.7 61 369 61C344.3 61 319.7 61 295.2 61C270.7 61 246.3 61 221.8 61C197.3 61 172.7 61 148 61C123.3 61 98.7 61 74 61C49.3 61 24.7 61 12.3 61L0 61Z" fill="#bebee6"></path><path d="M0 43L12.3 45C24.7 47 49.3 51 74 53.3C98.7 55.7 123.3 56.3 148 54.5C172.7 52.7 197.3 48.3 221.8 48.5C246.3 48.7 270.7 53.3 295.2 55.2C319.7 57 344.3 56 369 53.5C393.7 51 418.3 47 443 44.7C467.7 42.3 492.3 41.7 517 41.8C541.7 42 566.3 43 591 45.8C615.7 48.7 640.3 53.3 664.8 53.7C689.3 54 713.7 50 738.2 50C762.7 50 787.3 54 812 53.2C836.7 52.3 861.3 46.7 886 46.3C910.7 46 935.3 51 947.7 53.5L960 56L960 61L947.7 61C935.3 61 910.7 61 886 61C861.3 61 836.7 61 812 61C787.3 61 762.7 61 738.2 61C713.7 61 689.3 61 664.8 61C640.3 61 615.7 61 591 61C566.3 61 541.7 61 517 61C492.3 61 467.7 61 443 61C418.3 61 393.7 61 369 61C344.3 61 319.7 61 295.2 61C270.7 61 246.3 61 221.8 61C197.3 61 172.7 61 148 61C123.3 61 98.7 61 74 61C49.3 61 24.7 61 12.3 61L0 61Z" fill="#babbe5"></path><path d="M0 48L12.3 49.5C24.7 51 49.3 54 74 54.8C98.7 55.7 123.3 54.3 148 54.2C172.7 54 197.3 55 221.8 54.2C246.3 53.3 270.7 50.7 295.2 49.5C319.7 48.3 344.3 48.7 369 48.5C393.7 48.3 418.3 47.7 443 48.8C467.7 50 492.3 53 517 53.2C541.7 53.3 566.3 50.7 591 50.3C615.7 50 640.3 52 664.8 51.7C689.3 51.3 713.7 48.7 738.2 47.3C762.7 46 787.3 46 812 46.7C836.7 47.3 861.3 48.7 886 49C910.7 49.3 935.3 48.7 947.7 48.3L960 48L960 61L947.7 61C935.3 61 910.7 61 886 61C861.3 61 836.7 61 812 61C787.3 61 762.7 61 738.2 61C713.7 61 689.3 61 664.8 61C640.3 61 615.7 61 591 61C566.3 61 541.7 61 517 61C492.3 61 467.7 61 443 61C418.3 61 393.7 61 369 61C344.3 61 319.7 61 295.2 61C270.7 61 246.3 61 221.8 61C197.3 61 172.7 61 148 61C123.3 61 98.7 61 74 61C49.3 61 24.7 61 12.3 61L0 61Z" fill="#b7b9e4"></path><path d="M0 51L12.3 51.8C24.7 52.7 49.3 54.3 74 55.3C98.7 56.3 123.3 56.7 148 55.8C172.7 55 197.3 53 221.8 52.5C246.3 52 270.7 53 295.2 53.7C319.7 54.3 344.3 54.7 369 54.7C393.7 54.7 418.3 54.3 443 54.3C467.7 54.3 492.3 54.7 517 55.3C541.7 56 566.3 57 591 57.2C615.7 57.3 640.3 56.7 664.8 55.3C689.3 54 713.7 52 738.2 52.3C762.7 52.7 787.3 55.3 812 56C836.7 56.7 861.3 55.3 886 55.3C910.7 55.3 935.3 56.7 947.7 57.3L960 58L960 61L947.7 61C935.3 61 910.7 61 886 61C861.3 61 836.7 61 812 61C787.3 61 762.7 61 738.2 61C713.7 61 689.3 61 664.8 61C640.3 61 615.7 61 591 61C566.3 61 541.7 61 517 61C492.3 61 467.7 61 443 61C418.3 61 393.7 61 369 61C344.3 61 319.7 61 295.2 61C270.7 61 246.3 61 221.8 61C197.3 61 172.7 61 148 61C123.3 61 98.7 61 74 61C49.3 61 24.7 61 12.3 61L0 61Z" fill="#b3b6e3"></path></svg>