<svg id="visual" viewBox="0 0 960 200" width="960" height="200" xmlns="http://www.w3.org/2000/svg" xmlns:xlink="http://www.w3.org/1999/xlink" version="1.1"><rect x="0" y="0" width="960" height="200" fill="#FFFFFF"></rect><path d="M0 65L22.8 61.5C45.7 58 91.3 51 137 60C182.7 69 228.3 94 274 101C319.7 108 365.3 97 411.2 88.7C457 80.3 503 74.7 548.8 68.7C594.7 62.7 640.3 56.3 686 57.7C731.7 59 777.3 68 823 71.8C868.7 75.7 914.3 74.3 937.2 73.7L960 73L960 201L937.2 201C914.3 201 868.7 201 823 201C777.3 201 731.7 201 686 201C640.3 201 594.7 201 548.8 201C503 201 457 201 411.2 201C365.3 201 319.7 201 274 201C228.3 201 182.7 201 137 201C91.3 201 45.7 201 22.8 201L0 201Z" fill="#d8d5ed"></path><path d="M0 88L22.8 86C45.7 84 91.3 80 137 74.7C182.7 69.3 228.3 62.7 274 71.3C319.7 80 365.3 104 411.2 110.7C457 117.3 503 106.7 548.8 96C594.7 85.3 640.3 74.7 686 77.3C731.7 80 777.3 96 823 95.2C868.7 94.3 914.3 76.7 937.2 67.8L960 59L960 201L937.2 201C914.3 201 868.7 201 823 201C777.3 201 731.7 201 686 201C640.3 201 594.7 201 548.8 201C503 201 457 201 411.2 201C365.3 201 319.7 201 274 201C228.3 201 182.7 201 137 201C91.3 201 45.7 201 22.8 201L0 201Z" fill="#d5d2ec"></path><path d="M0 66L22.8 68.5C45.7 71 91.3 76 137 81C182.7 86 228.3 91 274 90.8C319.7 90.7 365.3 85.3 411.2 89.2C457 93 503 106 548.8 104C594.7 102 640.3 85 686 79.3C731.7 73.7 777.3 79.3 823 85.5C868.7 91.7 914.3 98.3 937.2 101.7L960 105L960 201L937.2 201C914.3 201 868.7 201 823 201C777.3 201 731.7 201 686 201C640.3 201 594.7 201 548.8 201C503 201 457 201 411.2 201C365.3 201 319.7 201 274 201C228.3 201 182.7 201 137 201C91.3 201 45.7 201 22.8 201L0 201Z" fill="#d2cfeb"></path><path d="M0 106L22.8 102.8C45.7 99.7 91.3 93.3 137 89C182.7 84.7 228.3 82.3 274 91C319.7 99.7 365.3 119.3 411.2 120.2C457 121 503 103 548.8 95.7C594.7 88.3 640.3 91.7 686 97.2C731.7 102.7 777.3 110.3 823 117C868.7 123.7 914.3 129.3 937.2 132.2L960 135L960 201L937.2 201C914.3 201 868.7 201 823 201C777.3 201 731.7 201 686 201C640.3 201 594.7 201 548.8 201C503 201 457 201 411.2 201C365.3 201 319.7 201 274 201C228.3 201 182.7 201 137 201C91.3 201 45.7 201 22.8 201L0 201Z" fill="#ceccea"></path><path d="M0 122L22.8 117.7C45.7 113.3 91.3 104.7 137 102.2C182.7 99.7 228.3 103.3 274 105C319.7 106.7 365.3 106.3 411.2 110.8C457 115.3 503 124.7 548.8 125.7C594.7 126.7 640.3 119.3 686 119.5C731.7 119.7 777.3 127.3 823 133.2C868.7 139 914.3 143 937.2 145L960 147L960 201L937.2 201C914.3 201 868.7 201 823 201C777.3 201 731.7 201 686 201C640.3 201 594.7 201 548.8 201C503 201 457 201 411.2 201C365.3 201 319.7 201 274 201C228.3 201 182.7 201 137 201C91.3 201 45.7 201 22.8 201L0 201Z" fill="#cbc9e9"></path><path d="M0 121L22.8 125.7C45.7 130.3 91.3 139.7 137 143.7C182.7 147.7 228.3 146.3 274 146C319.7 145.7 365.3 146.3 411.2 141C457 135.7 503 124.3 548.8 122.5C594.7 120.7 640.3 128.3 686 130.8C731.7 133.3 777.3 130.7 823 131.2C868.7 131.7 914.3 135.3 937.2 137.2L960 139L960 201L937.2 201C914.3 201 868.7 201 823 201C777.3 201 731.7 201 686 201C640.3 201 594.7 201 548.8 201C503 201 457 201 411.2 201C365.3 201 319.7 201 274 201C228.3 201 182.7 201 137 201C91.3 201 45.7 201 22.8 201L0 201Z" fill="#c8c6e8"></path><path d="M0 144L22.8 141.8C45.7 139.7 91.3 135.3 137 137.5C182.7 139.7 228.3 148.3 274 151.2C319.7 154 365.3 151 411.2 148C457 145 503 142 548.8 140C594.7 138 640.3 137 686 139.2C731.7 141.3 777.3 146.7 823 150.5C868.7 154.3 914.3 156.7 937.2 157.8L960 159L960 201L937.2 201C914.3 201 868.7 201 823 201C777.3 201 731.7 201 686 201C640.3 201 594.7 201 548.8 201C503 201 457 201 411.2 201C365.3 201 319.7 201 274 201C228.3 201 182.7 201 137 201C91.3 201 45.7 201 22.8 201L0 201Z" fill="#c4c4e8"></path><path d="M0 142L22.8 140.2C45.7 138.3 91.3 134.7 137 135.5C182.7 136.3 228.3 141.7 274 142.3C319.7 143 365.3 139 411.2 139.2C457 139.3 503 143.7 548.8 145.7C594.7 147.7 640.3 147.3 686 148.2C731.7 149 777.3 151 823 153C868.7 155 914.3 157 937.2 158L960 159L960 201L937.2 201C914.3 201 868.7 201 823 201C777.3 201 731.7 201 686 201C640.3 201 594.7 201 548.8 201C503 201 457 201 411.2 201C365.3 201 319.7 201 274 201C228.3 201 182.7 201 137 201C91.3 201 45.7 201 22.8 201L0 201Z" fill="#c1c1e7"></path><path d="M0 165L22.8 164.3C45.7 163.7 91.3 162.3 137 161.3C182.7 160.3 228.3 159.7 274 158C319.7 156.3 365.3 153.7 411.2 155.3C457 157 503 163 548.8 162.5C594.7 162 640.3 155 686 151.7C731.7 148.3 777.3 148.7 823 147.7C868.7 146.7 914.3 144.3 937.2 143.2L960 142L960 201L937.2 201C914.3 201 868.7 201 823 201C777.3 201 731.7 201 686 201C640.3 201 594.7 201 548.8 201C503 201 457 201 411.2 201C365.3 201 319.7 201 274 201C228.3 201 182.7 201 137 201C91.3 201 45.7 201 22.8 201L0 201Z" fill="#bebee6"></path><path d="M0 169L22.8 170C45.7 171 91.3 173 137 173.3C182.7 173.7 228.3 172.3 274 169C319.7 165.7 365.3 160.3 411.2 161.3C457 162.3 503 169.7 548.8 170.8C594.7 172 640.3 167 686 164.2C731.7 161.3 777.3 160.7 823 161.8C868.7 163 914.3 166 937.2 167.5L960 169L960 201L937.2 201C914.3 201 868.7 201 823 201C777.3 201 731.7 201 686 201C640.3 201 594.7 201 548.8 201C503 201 457 201 411.2 201C365.3 201 319.7 201 274 201C228.3 201 182.7 201 137 201C91.3 201 45.7 201 22.8 201L0 201Z" fill="#babbe5"></path><path d="M0 179L22.8 179.3C45.7 179.7 91.3 180.3 137 179.8C182.7 179.3 228.3 177.7 274 175.8C319.7 174 365.3 172 411.2 170C457 168 503 166 548.8 166.8C594.7 167.7 640.3 171.3 686 173.5C731.7 175.7 777.3 176.3 823 175.7C868.7 175 914.3 173 937.2 172L960 171L960 201L937.2 201C914.3 201 868.7 201 823 201C777.3 201 731.7 201 686 201C640.3 201 594.7 201 548.8 201C503 201 457 201 411.2 201C365.3 201 319.7 201 274 201C228.3 201 182.7 201 137 201C91.3 201 45.7 201 22.8 201L0 201Z" fill="#b7b9e4"></path><path d="M0 184L22.8 183.8C45.7 183.7 91.3 183.3 137 183.8C182.7 184.3 228.3 185.7 274 186.3C319.7 187 365.3 187 411.2 187.5C457 188 503 189 548.8 188.8C594.7 188.7 640.3 187.3 686 186C731.7 184.7 777.3 183.3 823 183.2C868.7 183 914.3 184 937.2 184.5L960 185L960 201L937.2 201C914.3 201 868.7 201 823 201C777.3 201 731.7 201 686 201C640.3 201 594.7 201 548.8 201C503 201 457 201 411.2 201C365.3 201 319.7 201 274 201C228.3 201 182.7 201 137 201C91.3 201 45.7 201 22.8 201L0 201Z" fill="#b3b6e3"></path></svg>