<svg id="visual" viewBox="0 0 960 200" width="960" height="200" xmlns="http://www.w3.org/2000/svg" xmlns:xlink="http://www.w3.org/1999/xlink" version="1.1"><rect x="0" y="0" width="960" height="200" fill="#FFFFFF"></rect><path d="M0 147L22.8 137.3C45.7 127.7 91.3 108.3 137 108.3C182.7 108.3 228.3 127.7 274 134.7C319.7 141.7 365.3 136.3 411.2 136.2C457 136 503 141 548.8 141.3C594.7 141.7 640.3 137.3 686 133C731.7 128.7 777.3 124.3 823 121.8C868.7 119.3 914.3 118.7 937.2 118.3L960 118L960 0L937.2 0C914.3 0 868.7 0 823 0C777.3 0 731.7 0 686 0C640.3 0 594.7 0 548.8 0C503 0 457 0 411.2 0C365.3 0 319.7 0 274 0C228.3 0 182.7 0 137 0C91.3 0 45.7 0 22.8 0L0 0Z" fill="#f1ffe8"></path><path d="M0 129L22.8 127.8C45.7 126.7 91.3 124.3 137 115.5C182.7 106.7 228.3 91.3 274 89.5C319.7 87.7 365.3 99.3 411.2 104.7C457 110 503 109 548.8 113.7C594.7 118.3 640.3 128.7 686 122.7C731.7 116.7 777.3 94.3 823 93.5C868.7 92.7 914.3 113.3 937.2 123.7L960 134L960 0L937.2 0C914.3 0 868.7 0 823 0C777.3 0 731.7 0 686 0C640.3 0 594.7 0 548.8 0C503 0 457 0 411.2 0C365.3 0 319.7 0 274 0C228.3 0 182.7 0 137 0C91.3 0 45.7 0 22.8 0L0 0Z" fill="#eefee6"></path><path d="M0 112L22.8 106.3C45.7 100.7 91.3 89.3 137 91.3C182.7 93.3 228.3 108.7 274 111.5C319.7 114.3 365.3 104.7 411.2 102.5C457 100.3 503 105.7 548.8 111.2C594.7 116.7 640.3 122.3 686 114.5C731.7 106.7 777.3 85.3 823 77.5C868.7 69.7 914.3 75.3 937.2 78.2L960 81L960 0L937.2 0C914.3 0 868.7 0 823 0C777.3 0 731.7 0 686 0C640.3 0 594.7 0 548.8 0C503 0 457 0 411.2 0C365.3 0 319.7 0 274 0C228.3 0 182.7 0 137 0C91.3 0 45.7 0 22.8 0L0 0Z" fill="#ebfde3"></path><path d="M0 86L22.8 84.8C45.7 83.7 91.3 81.3 137 79C182.7 76.7 228.3 74.3 274 72.7C319.7 71 365.3 70 411.2 75.8C457 81.7 503 94.3 548.8 99.7C594.7 105 640.3 103 686 103.3C731.7 103.7 777.3 106.3 823 100C868.7 93.7 914.3 78.3 937.2 70.7L960 63L960 0L937.2 0C914.3 0 868.7 0 823 0C777.3 0 731.7 0 686 0C640.3 0 594.7 0 548.8 0C503 0 457 0 411.2 0C365.3 0 319.7 0 274 0C228.3 0 182.7 0 137 0C91.3 0 45.7 0 22.8 0L0 0Z" fill="#e9fce1"></path><path d="M0 95L22.8 88.3C45.7 81.7 91.3 68.3 137 68.5C182.7 68.7 228.3 82.3 274 86.7C319.7 91 365.3 86 411.2 86C457 86 503 91 548.8 91.5C594.7 92 640.3 88 686 82.5C731.7 77 777.3 70 823 65.8C868.7 61.7 914.3 60.3 937.2 59.7L960 59L960 0L937.2 0C914.3 0 868.7 0 823 0C777.3 0 731.7 0 686 0C640.3 0 594.7 0 548.8 0C503 0 457 0 411.2 0C365.3 0 319.7 0 274 0C228.3 0 182.7 0 137 0C91.3 0 45.7 0 22.8 0L0 0Z" fill="#e6fbdf"></path><path d="M0 95L22.8 94.3C45.7 93.7 91.3 92.3 137 86.2C182.7 80 228.3 69 274 69C319.7 69 365.3 80 411.2 82.2C457 84.3 503 77.7 548.8 71.8C594.7 66 640.3 61 686 58.2C731.7 55.3 777.3 54.7 823 53.5C868.7 52.3 914.3 50.7 937.2 49.8L960 49L960 0L937.2 0C914.3 0 868.7 0 823 0C777.3 0 731.7 0 686 0C640.3 0 594.7 0 548.8 0C503 0 457 0 411.2 0C365.3 0 319.7 0 274 0C228.3 0 182.7 0 137 0C91.3 0 45.7 0 22.8 0L0 0Z" fill="#e3fadd"></path><path d="M0 81L22.8 81C45.7 81 91.3 81 137 76.5C182.7 72 228.3 63 274 59.7C319.7 56.3 365.3 58.7 411.2 58.5C457 58.3 503 55.7 548.8 57.5C594.7 59.3 640.3 65.7 686 65.2C731.7 64.7 777.3 57.3 823 53.5C868.7 49.7 914.3 49.3 937.2 49.2L960 49L960 0L937.2 0C914.3 0 868.7 0 823 0C777.3 0 731.7 0 686 0C640.3 0 594.7 0 548.8 0C503 0 457 0 411.2 0C365.3 0 319.7 0 274 0C228.3 0 182.7 0 137 0C91.3 0 45.7 0 22.8 0L0 0Z" fill="#dffadb"></path><path d="M0 70L22.8 68C45.7 66 91.3 62 137 61.8C182.7 61.7 228.3 65.3 274 62.2C319.7 59 365.3 49 411.2 48.3C457 47.7 503 56.3 548.8 60C594.7 63.7 640.3 62.3 686 58.2C731.7 54 777.3 47 823 44C868.7 41 914.3 42 937.2 42.5L960 43L960 0L937.2 0C914.3 0 868.7 0 823 0C777.3 0 731.7 0 686 0C640.3 0 594.7 0 548.8 0C503 0 457 0 411.2 0C365.3 0 319.7 0 274 0C228.3 0 182.7 0 137 0C91.3 0 45.7 0 22.8 0L0 0Z" fill="#dcf9d9"></path><path d="M0 45L22.8 46.8C45.7 48.7 91.3 52.3 137 49.2C182.7 46 228.3 36 274 32.2C319.7 28.3 365.3 30.7 411.2 31.3C457 32 503 31 548.8 34.2C594.7 37.3 640.3 44.7 686 49C731.7 53.3 777.3 54.7 823 53.5C868.7 52.3 914.3 48.7 937.2 46.8L960 45L960 0L937.2 0C914.3 0 868.7 0 823 0C777.3 0 731.7 0 686 0C640.3 0 594.7 0 548.8 0C503 0 457 0 411.2 0C365.3 0 319.7 0 274 0C228.3 0 182.7 0 137 0C91.3 0 45.7 0 22.8 0L0 0Z" fill="#d9f8d8"></path><path d="M0 43L22.8 43.5C45.7 44 91.3 45 137 42.7C182.7 40.3 228.3 34.7 274 31C319.7 27.3 365.3 25.7 411.2 25C457 24.3 503 24.7 548.8 25.5C594.7 26.3 640.3 27.7 686 30.2C731.7 32.7 777.3 36.3 823 37C868.7 37.7 914.3 35.3 937.2 34.2L960 33L960 0L937.2 0C914.3 0 868.7 0 823 0C777.3 0 731.7 0 686 0C640.3 0 594.7 0 548.8 0C503 0 457 0 411.2 0C365.3 0 319.7 0 274 0C228.3 0 182.7 0 137 0C91.3 0 45.7 0 22.8 0L0 0Z" fill="#d5f7d6"></path><path d="M0 20L22.8 19C45.7 18 91.3 16 137 17.3C182.7 18.7 228.3 23.3 274 23.7C319.7 24 365.3 20 411.2 17.8C457 15.7 503 15.3 548.8 16.5C594.7 17.7 640.3 20.3 686 23.2C731.7 26 777.3 29 823 30.2C868.7 31.3 914.3 30.7 937.2 30.3L960 30L960 0L937.2 0C914.3 0 868.7 0 823 0C777.3 0 731.7 0 686 0C640.3 0 594.7 0 548.8 0C503 0 457 0 411.2 0C365.3 0 319.7 0 274 0C228.3 0 182.7 0 137 0C91.3 0 45.7 0 22.8 0L0 0Z" fill="#d2f6d4"></path><path d="M0 20L22.8 18.2C45.7 16.3 91.3 12.7 137 11.5C182.7 10.3 228.3 11.7 274 13.3C319.7 15 365.3 17 411.2 17.7C457 18.3 503 17.7 548.8 17.7C594.7 17.7 640.3 18.3 686 18.7C731.7 19 777.3 19 823 18.7C868.7 18.3 914.3 17.7 937.2 17.3L960 17L960 0L937.2 0C914.3 0 868.7 0 823 0C777.3 0 731.7 0 686 0C640.3 0 594.7 0 548.8 0C503 0 457 0 411.2 0C365.3 0 319.7 0 274 0C228.3 0 182.7 0 137 0C91.3 0 45.7 0 22.8 0L0 0Z" fill="#cef5d3"></path></svg>