<svg id="visual" viewBox="0 0 960 60" width="960" height="60" xmlns="http://www.w3.org/2000/svg" xmlns:xlink="http://www.w3.org/1999/xlink" version="1.1"><rect x="0" y="0" width="960" height="60" fill="#FFFFFF"></rect><path d="M0 24L12.3 25.3C24.7 26.7 49.3 29.3 74 29.5C98.7 29.7 123.3 27.3 148 25.3C172.7 23.3 197.3 21.7 221.8 24.3C246.3 27 270.7 34 295.2 31C319.7 28 344.3 15 369 8.3C393.7 1.7 418.3 1.3 443 3.3C467.7 5.3 492.3 9.7 517 13.2C541.7 16.7 566.3 19.3 591 20.8C615.7 22.3 640.3 22.7 664.8 21.5C689.3 20.3 713.7 17.7 738.2 17.2C762.7 16.7 787.3 18.3 812 18.5C836.7 18.7 861.3 17.3 886 22.8C910.7 28.3 935.3 40.7 947.7 46.8L960 53L960 0L947.7 0C935.3 0 910.7 0 886 0C861.3 0 836.7 0 812 0C787.3 0 762.7 0 738.2 0C713.7 0 689.3 0 664.8 0C640.3 0 615.7 0 591 0C566.3 0 541.7 0 517 0C492.3 0 467.7 0 443 0C418.3 0 393.7 0 369 0C344.3 0 319.7 0 295.2 0C270.7 0 246.3 0 221.8 0C197.3 0 172.7 0 148 0C123.3 0 98.7 0 74 0C49.3 0 24.7 0 12.3 0L0 0Z" fill="#f1ffe8"></path><path d="M0 24L12.3 27.7C24.7 31.3 49.3 38.7 74 34.7C98.7 30.7 123.3 15.3 148 8.5C172.7 1.7 197.3 3.3 221.8 3.5C246.3 3.7 270.7 2.3 295.2 5.3C319.7 8.3 344.3 15.7 369 22.8C393.7 30 418.3 37 443 40.7C467.7 44.3 492.3 44.7 517 45C541.7 45.3 566.3 45.7 591 39.3C615.7 33 640.3 20 664.8 18.7C689.3 17.3 713.7 27.7 738.2 29.7C762.7 31.7 787.3 25.3 812 25.7C836.7 26 861.3 33 886 30.5C910.7 28 935.3 16 947.7 10L960 4L960 0L947.7 0C935.3 0 910.7 0 886 0C861.3 0 836.7 0 812 0C787.3 0 762.7 0 738.2 0C713.7 0 689.3 0 664.8 0C640.3 0 615.7 0 591 0C566.3 0 541.7 0 517 0C492.3 0 467.7 0 443 0C418.3 0 393.7 0 369 0C344.3 0 319.7 0 295.2 0C270.7 0 246.3 0 221.8 0C197.3 0 172.7 0 148 0C123.3 0 98.7 0 74 0C49.3 0 24.7 0 12.3 0L0 0Z" fill="#eefee6"></path><path d="M0 26L12.3 28.8C24.7 31.7 49.3 37.3 74 34.7C98.7 32 123.3 21 148 21.2C172.7 21.3 197.3 32.7 221.8 31C246.3 29.3 270.7 14.7 295.2 9.8C319.7 5 344.3 10 369 15C393.7 20 418.3 25 443 23.3C467.7 21.7 492.3 13.3 517 12C541.7 10.7 566.3 16.3 591 21.5C615.7 26.7 640.3 31.3 664.8 31.2C689.3 31 713.7 26 738.2 21.7C762.7 17.3 787.3 13.7 812 10.7C836.7 7.7 861.3 5.3 886 5.7C910.7 6 935.3 9 947.7 10.5L960 12L960 0L947.7 0C935.3 0 910.7 0 886 0C861.3 0 836.7 0 812 0C787.3 0 762.7 0 738.2 0C713.7 0 689.3 0 664.8 0C640.3 0 615.7 0 591 0C566.3 0 541.7 0 517 0C492.3 0 467.7 0 443 0C418.3 0 393.7 0 369 0C344.3 0 319.7 0 295.2 0C270.7 0 246.3 0 221.8 0C197.3 0 172.7 0 148 0C123.3 0 98.7 0 74 0C49.3 0 24.7 0 12.3 0L0 0Z" fill="#ebfde3"></path><path d="M0 14L12.3 13.2C24.7 12.3 49.3 10.7 74 14.2C98.7 17.7 123.3 26.3 148 30.2C172.7 34 197.3 33 221.8 28.8C246.3 24.7 270.7 17.3 295.2 19C319.7 20.7 344.3 31.3 369 34.2C393.7 37 418.3 32 443 31.2C467.7 30.3 492.3 33.7 517 31C541.7 28.3 566.3 19.7 591 17.8C615.7 16 640.3 21 664.8 19.3C689.3 17.7 713.7 9.3 738.2 8.2C762.7 7 787.3 13 812 19.5C836.7 26 861.3 33 886 34.8C910.7 36.7 935.3 33.3 947.7 31.7L960 30L960 0L947.7 0C935.3 0 910.7 0 886 0C861.3 0 836.7 0 812 0C787.3 0 762.7 0 738.2 0C713.7 0 689.3 0 664.8 0C640.3 0 615.7 0 591 0C566.3 0 541.7 0 517 0C492.3 0 467.7 0 443 0C418.3 0 393.7 0 369 0C344.3 0 319.7 0 295.2 0C270.7 0 246.3 0 221.8 0C197.3 0 172.7 0 148 0C123.3 0 98.7 0 74 0C49.3 0 24.7 0 12.3 0L0 0Z" fill="#e9fce1"></path><path d="M0 7L12.3 11.8C24.7 16.7 49.3 26.3 74 25.2C98.7 24 123.3 12 148 7C172.7 2 197.3 4 221.8 10.5C246.3 17 270.7 28 295.2 32.3C319.7 36.7 344.3 34.3 369 29C393.7 23.7 418.3 15.3 443 11.8C467.7 8.3 492.3 9.7 517 10.8C541.7 12 566.3 13 591 14.5C615.7 16 640.3 18 664.8 22.2C689.3 26.3 713.7 32.7 738.2 30C762.7 27.3 787.3 15.7 812 10C836.7 4.3 861.3 4.7 886 5.8C910.7 7 935.3 9 947.7 10L960 11L960 0L947.7 0C935.3 0 910.7 0 886 0C861.3 0 836.7 0 812 0C787.3 0 762.7 0 738.2 0C713.7 0 689.3 0 664.8 0C640.3 0 615.7 0 591 0C566.3 0 541.7 0 517 0C492.3 0 467.7 0 443 0C418.3 0 393.7 0 369 0C344.3 0 319.7 0 295.2 0C270.7 0 246.3 0 221.8 0C197.3 0 172.7 0 148 0C123.3 0 98.7 0 74 0C49.3 0 24.7 0 12.3 0L0 0Z" fill="#e6fbdf"></path><path d="M0 10L12.3 11.2C24.7 12.3 49.3 14.7 74 14.7C98.7 14.7 123.3 12.3 148 13.5C172.7 14.7 197.3 19.3 221.8 20.5C246.3 21.7 270.7 19.3 295.2 18.5C319.7 17.7 344.3 18.3 369 16.7C393.7 15 418.3 11 443 11.8C467.7 12.7 492.3 18.3 517 21.2C541.7 24 566.3 24 591 23.8C615.7 23.7 640.3 23.3 664.8 19.7C689.3 16 713.7 9 738.2 5.7C762.7 2.3 787.3 2.7 812 8.2C836.7 13.7 861.3 24.3 886 24.3C910.7 24.3 935.3 13.7 947.7 8.3L960 3L960 0L947.7 0C935.3 0 910.7 0 886 0C861.3 0 836.7 0 812 0C787.3 0 762.7 0 738.2 0C713.7 0 689.3 0 664.8 0C640.3 0 615.7 0 591 0C566.3 0 541.7 0 517 0C492.3 0 467.7 0 443 0C418.3 0 393.7 0 369 0C344.3 0 319.7 0 295.2 0C270.7 0 246.3 0 221.8 0C197.3 0 172.7 0 148 0C123.3 0 98.7 0 74 0C49.3 0 24.7 0 12.3 0L0 0Z" fill="#e3fadd"></path><path d="M0 30L12.3 29C24.7 28 49.3 26 74 21.8C98.7 17.7 123.3 11.3 148 10.3C172.7 9.3 197.3 13.7 221.8 17.3C246.3 21 270.7 24 295.2 21.5C319.7 19 344.3 11 369 7.8C393.7 4.7 418.3 6.3 443 10.2C467.7 14 492.3 20 517 23.8C541.7 27.7 566.3 29.3 591 26.8C615.7 24.3 640.3 17.7 664.8 14.3C689.3 11 713.7 11 738.2 13.8C762.7 16.7 787.3 22.3 812 23.8C836.7 25.3 861.3 22.7 886 19C910.7 15.3 935.3 10.7 947.7 8.3L960 6L960 0L947.7 0C935.3 0 910.7 0 886 0C861.3 0 836.7 0 812 0C787.3 0 762.7 0 738.2 0C713.7 0 689.3 0 664.8 0C640.3 0 615.7 0 591 0C566.3 0 541.7 0 517 0C492.3 0 467.7 0 443 0C418.3 0 393.7 0 369 0C344.3 0 319.7 0 295.2 0C270.7 0 246.3 0 221.8 0C197.3 0 172.7 0 148 0C123.3 0 98.7 0 74 0C49.3 0 24.7 0 12.3 0L0 0Z" fill="#dffadb"></path><path d="M0 21L12.3 21.7C24.7 22.3 49.3 23.7 74 23C98.7 22.3 123.3 19.7 148 16C172.7 12.3 197.3 7.7 221.8 8.8C246.3 10 270.7 17 295.2 17.8C319.7 18.7 344.3 13.3 369 9.3C393.7 5.3 418.3 2.7 443 3.2C467.7 3.7 492.3 7.3 517 10.8C541.7 14.3 566.3 17.7 591 16C615.7 14.3 640.3 7.7 664.8 6.2C689.3 4.7 713.7 8.3 738.2 12.2C762.7 16 787.3 20 812 21.7C836.7 23.3 861.3 22.7 886 22.8C910.7 23 935.3 24 947.7 24.5L960 25L960 0L947.7 0C935.3 0 910.7 0 886 0C861.3 0 836.7 0 812 0C787.3 0 762.7 0 738.2 0C713.7 0 689.3 0 664.8 0C640.3 0 615.7 0 591 0C566.3 0 541.7 0 517 0C492.3 0 467.7 0 443 0C418.3 0 393.7 0 369 0C344.3 0 319.7 0 295.2 0C270.7 0 246.3 0 221.8 0C197.3 0 172.7 0 148 0C123.3 0 98.7 0 74 0C49.3 0 24.7 0 12.3 0L0 0Z" fill="#dcf9d9"></path><path d="M0 6L12.3 8C24.7 10 49.3 14 74 16.3C98.7 18.7 123.3 19.3 148 18.8C172.7 18.3 197.3 16.7 221.8 16.3C246.3 16 270.7 17 295.2 16.2C319.7 15.3 344.3 12.7 369 11.7C393.7 10.7 418.3 11.3 443 11.8C467.7 12.3 492.3 12.7 517 11.3C541.7 10 566.3 7 591 5.2C615.7 3.3 640.3 2.7 664.8 5.7C689.3 8.7 713.7 15.3 738.2 17.5C762.7 19.7 787.3 17.3 812 14C836.7 10.7 861.3 6.3 886 5.8C910.7 5.3 935.3 8.7 947.7 10.3L960 12L960 0L947.7 0C935.3 0 910.7 0 886 0C861.3 0 836.7 0 812 0C787.3 0 762.7 0 738.2 0C713.7 0 689.3 0 664.8 0C640.3 0 615.7 0 591 0C566.3 0 541.7 0 517 0C492.3 0 467.7 0 443 0C418.3 0 393.7 0 369 0C344.3 0 319.7 0 295.2 0C270.7 0 246.3 0 221.8 0C197.3 0 172.7 0 148 0C123.3 0 98.7 0 74 0C49.3 0 24.7 0 12.3 0L0 0Z" fill="#d9f8d8"></path><path d="M0 7L12.3 7.2C24.7 7.3 49.3 7.7 74 8.5C98.7 9.3 123.3 10.7 148 9.3C172.7 8 197.3 4 221.8 2C246.3 0 270.7 0 295.2 0.7C319.7 1.3 344.3 2.7 369 3.8C393.7 5 418.3 6 443 5.8C467.7 5.7 492.3 4.3 517 4.8C541.7 5.3 566.3 7.7 591 8.3C615.7 9 640.3 8 664.8 8.7C689.3 9.3 713.7 11.7 738.2 13.2C762.7 14.7 787.3 15.3 812 14.7C836.7 14 861.3 12 886 12C910.7 12 935.3 14 947.7 15L960 16L960 0L947.7 0C935.3 0 910.7 0 886 0C861.3 0 836.7 0 812 0C787.3 0 762.7 0 738.2 0C713.7 0 689.3 0 664.8 0C640.3 0 615.7 0 591 0C566.3 0 541.7 0 517 0C492.3 0 467.7 0 443 0C418.3 0 393.7 0 369 0C344.3 0 319.7 0 295.2 0C270.7 0 246.3 0 221.8 0C197.3 0 172.7 0 148 0C123.3 0 98.7 0 74 0C49.3 0 24.7 0 12.3 0L0 0Z" fill="#d5f7d6"></path><path d="M0 13L12.3 12.3C24.7 11.7 49.3 10.3 74 9.3C98.7 8.3 123.3 7.7 148 6.3C172.7 5 197.3 3 221.8 3C246.3 3 270.7 5 295.2 5.2C319.7 5.3 344.3 3.7 369 4.7C393.7 5.7 418.3 9.3 443 10.8C467.7 12.3 492.3 11.7 517 11.3C541.7 11 566.3 11 591 10.2C615.7 9.3 640.3 7.7 664.8 5.8C689.3 4 713.7 2 738.2 2.2C762.7 2.3 787.3 4.7 812 5.8C836.7 7 861.3 7 886 6.3C910.7 5.7 935.3 4.3 947.7 3.7L960 3L960 0L947.7 0C935.3 0 910.7 0 886 0C861.3 0 836.7 0 812 0C787.3 0 762.7 0 738.2 0C713.7 0 689.3 0 664.8 0C640.3 0 615.7 0 591 0C566.3 0 541.7 0 517 0C492.3 0 467.7 0 443 0C418.3 0 393.7 0 369 0C344.3 0 319.7 0 295.2 0C270.7 0 246.3 0 221.8 0C197.3 0 172.7 0 148 0C123.3 0 98.7 0 74 0C49.3 0 24.7 0 12.3 0L0 0Z" fill="#d2f6d4"></path><path d="M0 8L12.3 7C24.7 6 49.3 4 74 3.2C98.7 2.3 123.3 2.7 148 2.5C172.7 2.3 197.3 1.7 221.8 1.7C246.3 1.7 270.7 2.3 295.2 2.2C319.7 2 344.3 1 369 1.7C393.7 2.3 418.3 4.7 443 5.3C467.7 6 492.3 5 517 4C541.7 3 566.3 2 591 2C615.7 2 640.3 3 664.8 3.5C689.3 4 713.7 4 738.2 4.3C762.7 4.7 787.3 5.3 812 4.8C836.7 4.3 861.3 2.7 886 2.3C910.7 2 935.3 3 947.7 3.5L960 4L960 0L947.7 0C935.3 0 910.7 0 886 0C861.3 0 836.7 0 812 0C787.3 0 762.7 0 738.2 0C713.7 0 689.3 0 664.8 0C640.3 0 615.7 0 591 0C566.3 0 541.7 0 517 0C492.3 0 467.7 0 443 0C418.3 0 393.7 0 369 0C344.3 0 319.7 0 295.2 0C270.7 0 246.3 0 221.8 0C197.3 0 172.7 0 148 0C123.3 0 98.7 0 74 0C49.3 0 24.7 0 12.3 0L0 0Z" fill="#cef5d3"></path></svg>