<svg id="visual" viewBox="0 0 960 60" width="960" height="60" xmlns="http://www.w3.org/2000/svg" xmlns:xlink="http://www.w3.org/1999/xlink" version="1.1"><rect x="0" y="0" width="960" height="60" fill="#FFFFFF"></rect><path d="M0 16L12.3 15C24.7 14 49.3 12 74 16.3C98.7 20.7 123.3 31.3 148 33.2C172.7 35 197.3 28 221.8 23C246.3 18 270.7 15 295.2 17.7C319.7 20.3 344.3 28.7 369 28.8C393.7 29 418.3 21 443 18.7C467.7 16.3 492.3 19.7 517 24.7C541.7 29.7 566.3 36.3 591 38.2C615.7 40 640.3 37 664.8 39C689.3 41 713.7 48 738.2 49.2C762.7 50.3 787.3 45.7 812 43.3C836.7 41 861.3 41 886 42C910.7 43 935.3 45 947.7 46L960 47L960 0L947.7 0C935.3 0 910.7 0 886 0C861.3 0 836.7 0 812 0C787.3 0 762.7 0 738.2 0C713.7 0 689.3 0 664.8 0C640.3 0 615.7 0 591 0C566.3 0 541.7 0 517 0C492.3 0 467.7 0 443 0C418.3 0 393.7 0 369 0C344.3 0 319.7 0 295.2 0C270.7 0 246.3 0 221.8 0C197.3 0 172.7 0 148 0C123.3 0 98.7 0 74 0C49.3 0 24.7 0 12.3 0L0 0Z" fill="#d8d5ed"></path><path d="M0 29L12.3 26.3C24.7 23.7 49.3 18.3 74 21.7C98.7 25 123.3 37 148 35.5C172.7 34 197.3 19 221.8 12C246.3 5 270.7 6 295.2 8.8C319.7 11.7 344.3 16.3 369 17.5C393.7 18.7 418.3 16.3 443 14.2C467.7 12 492.3 10 517 15.5C541.7 21 566.3 34 591 38.7C615.7 43.3 640.3 39.7 664.8 37.5C689.3 35.3 713.7 34.7 738.2 30.8C762.7 27 787.3 20 812 17.3C836.7 14.7 861.3 16.3 886 22.8C910.7 29.3 935.3 40.7 947.7 46.3L960 52L960 0L947.7 0C935.3 0 910.7 0 886 0C861.3 0 836.7 0 812 0C787.3 0 762.7 0 738.2 0C713.7 0 689.3 0 664.8 0C640.3 0 615.7 0 591 0C566.3 0 541.7 0 517 0C492.3 0 467.7 0 443 0C418.3 0 393.7 0 369 0C344.3 0 319.7 0 295.2 0C270.7 0 246.3 0 221.8 0C197.3 0 172.7 0 148 0C123.3 0 98.7 0 74 0C49.3 0 24.7 0 12.3 0L0 0Z" fill="#d5d2ec"></path><path d="M0 40L12.3 37C24.7 34 49.3 28 74 28.8C98.7 29.7 123.3 37.3 148 33.8C172.7 30.3 197.3 15.7 221.8 14C246.3 12.3 270.7 23.7 295.2 23.5C319.7 23.3 344.3 11.7 369 10.3C393.7 9 418.3 18 443 26.3C467.7 34.7 492.3 42.3 517 39.2C541.7 36 566.3 22 591 16.7C615.7 11.3 640.3 14.7 664.8 21C689.3 27.3 713.7 36.7 738.2 39.5C762.7 42.3 787.3 38.7 812 35.8C836.7 33 861.3 31 886 25.2C910.7 19.3 935.3 9.7 947.7 4.8L960 0L960 0L947.7 0C935.3 0 910.7 0 886 0C861.3 0 836.7 0 812 0C787.3 0 762.7 0 738.2 0C713.7 0 689.3 0 664.8 0C640.3 0 615.7 0 591 0C566.3 0 541.7 0 517 0C492.3 0 467.7 0 443 0C418.3 0 393.7 0 369 0C344.3 0 319.7 0 295.2 0C270.7 0 246.3 0 221.8 0C197.3 0 172.7 0 148 0C123.3 0 98.7 0 74 0C49.3 0 24.7 0 12.3 0L0 0Z" fill="#d2cfeb"></path><path d="M0 8L12.3 8C24.7 8 49.3 8 74 7.8C98.7 7.7 123.3 7.3 148 8.7C172.7 10 197.3 13 221.8 12.2C246.3 11.3 270.7 6.7 295.2 9.2C319.7 11.7 344.3 21.3 369 25.5C393.7 29.7 418.3 28.3 443 30C467.7 31.7 492.3 36.3 517 33.8C541.7 31.3 566.3 21.7 591 22.3C615.7 23 640.3 34 664.8 34.2C689.3 34.3 713.7 23.7 738.2 20.2C762.7 16.7 787.3 20.3 812 24.7C836.7 29 861.3 34 886 36.3C910.7 38.7 935.3 38.3 947.7 38.2L960 38L960 0L947.7 0C935.3 0 910.7 0 886 0C861.3 0 836.7 0 812 0C787.3 0 762.7 0 738.2 0C713.7 0 689.3 0 664.8 0C640.3 0 615.7 0 591 0C566.3 0 541.7 0 517 0C492.3 0 467.7 0 443 0C418.3 0 393.7 0 369 0C344.3 0 319.7 0 295.2 0C270.7 0 246.3 0 221.8 0C197.3 0 172.7 0 148 0C123.3 0 98.7 0 74 0C49.3 0 24.7 0 12.3 0L0 0Z" fill="#ceccea"></path><path d="M0 3L12.3 6.3C24.7 9.7 49.3 16.3 74 16C98.7 15.7 123.3 8.3 148 5.8C172.7 3.3 197.3 5.7 221.8 12.2C246.3 18.7 270.7 29.3 295.2 32.2C319.7 35 344.3 30 369 24C393.7 18 418.3 11 443 12.3C467.7 13.7 492.3 23.3 517 29.3C541.7 35.3 566.3 37.7 591 34.5C615.7 31.3 640.3 22.7 664.8 22.5C689.3 22.3 713.7 30.7 738.2 32.3C762.7 34 787.3 29 812 28.2C836.7 27.3 861.3 30.7 886 28.8C910.7 27 935.3 20 947.7 16.5L960 13L960 0L947.7 0C935.3 0 910.7 0 886 0C861.3 0 836.7 0 812 0C787.3 0 762.7 0 738.2 0C713.7 0 689.3 0 664.8 0C640.3 0 615.7 0 591 0C566.3 0 541.7 0 517 0C492.3 0 467.7 0 443 0C418.3 0 393.7 0 369 0C344.3 0 319.7 0 295.2 0C270.7 0 246.3 0 221.8 0C197.3 0 172.7 0 148 0C123.3 0 98.7 0 74 0C49.3 0 24.7 0 12.3 0L0 0Z" fill="#cbc9e9"></path><path d="M0 0L12.3 4.5C24.7 9 49.3 18 74 22.2C98.7 26.3 123.3 25.7 148 24.7C172.7 23.7 197.3 22.3 221.8 22.8C246.3 23.3 270.7 25.7 295.2 26.2C319.7 26.7 344.3 25.3 369 25C393.7 24.7 418.3 25.3 443 22.7C467.7 20 492.3 14 517 14.5C541.7 15 566.3 22 591 24.2C615.7 26.3 640.3 23.7 664.8 22.5C689.3 21.3 713.7 21.7 738.2 18.2C762.7 14.7 787.3 7.3 812 5.3C836.7 3.3 861.3 6.7 886 8.5C910.7 10.3 935.3 10.7 947.7 10.8L960 11L960 0L947.7 0C935.3 0 910.7 0 886 0C861.3 0 836.7 0 812 0C787.3 0 762.7 0 738.2 0C713.7 0 689.3 0 664.8 0C640.3 0 615.7 0 591 0C566.3 0 541.7 0 517 0C492.3 0 467.7 0 443 0C418.3 0 393.7 0 369 0C344.3 0 319.7 0 295.2 0C270.7 0 246.3 0 221.8 0C197.3 0 172.7 0 148 0C123.3 0 98.7 0 74 0C49.3 0 24.7 0 12.3 0L0 0Z" fill="#c8c6e8"></path><path d="M0 27L12.3 23.3C24.7 19.7 49.3 12.3 74 10.5C98.7 8.7 123.3 12.3 148 13.7C172.7 15 197.3 14 221.8 13.2C246.3 12.3 270.7 11.7 295.2 10C319.7 8.3 344.3 5.7 369 5.3C393.7 5 418.3 7 443 9C467.7 11 492.3 13 517 13C541.7 13 566.3 11 591 10.8C615.7 10.7 640.3 12.3 664.8 11.7C689.3 11 713.7 8 738.2 9.3C762.7 10.7 787.3 16.3 812 20.5C836.7 24.7 861.3 27.3 886 25.3C910.7 23.3 935.3 16.7 947.7 13.3L960 10L960 0L947.7 0C935.3 0 910.7 0 886 0C861.3 0 836.7 0 812 0C787.3 0 762.7 0 738.2 0C713.7 0 689.3 0 664.8 0C640.3 0 615.7 0 591 0C566.3 0 541.7 0 517 0C492.3 0 467.7 0 443 0C418.3 0 393.7 0 369 0C344.3 0 319.7 0 295.2 0C270.7 0 246.3 0 221.8 0C197.3 0 172.7 0 148 0C123.3 0 98.7 0 74 0C49.3 0 24.7 0 12.3 0L0 0Z" fill="#c4c4e8"></path><path d="M0 9L12.3 11.3C24.7 13.7 49.3 18.3 74 17.2C98.7 16 123.3 9 148 5.5C172.7 2 197.3 2 221.8 3.8C246.3 5.7 270.7 9.3 295.2 11.3C319.7 13.3 344.3 13.7 369 16C393.7 18.3 418.3 22.7 443 24.2C467.7 25.7 492.3 24.3 517 20.3C541.7 16.3 566.3 9.7 591 7.3C615.7 5 640.3 7 664.8 7.5C689.3 8 713.7 7 738.2 5.8C762.7 4.7 787.3 3.3 812 2.3C836.7 1.3 861.3 0.7 886 4C910.7 7.3 935.3 14.7 947.7 18.3L960 22L960 0L947.7 0C935.3 0 910.7 0 886 0C861.3 0 836.7 0 812 0C787.3 0 762.7 0 738.2 0C713.7 0 689.3 0 664.8 0C640.3 0 615.7 0 591 0C566.3 0 541.7 0 517 0C492.3 0 467.7 0 443 0C418.3 0 393.7 0 369 0C344.3 0 319.7 0 295.2 0C270.7 0 246.3 0 221.8 0C197.3 0 172.7 0 148 0C123.3 0 98.7 0 74 0C49.3 0 24.7 0 12.3 0L0 0Z" fill="#c1c1e7"></path><path d="M0 1L12.3 1.3C24.7 1.7 49.3 2.3 74 4.8C98.7 7.3 123.3 11.7 148 13.7C172.7 15.7 197.3 15.3 221.8 14.2C246.3 13 270.7 11 295.2 11C319.7 11 344.3 13 369 14.3C393.7 15.7 418.3 16.3 443 16.2C467.7 16 492.3 15 517 13.7C541.7 12.3 566.3 10.7 591 12C615.7 13.3 640.3 17.7 664.8 18.2C689.3 18.7 713.7 15.3 738.2 13.8C762.7 12.3 787.3 12.7 812 11.7C836.7 10.7 861.3 8.3 886 6.3C910.7 4.3 935.3 2.7 947.7 1.8L960 1L960 0L947.7 0C935.3 0 910.7 0 886 0C861.3 0 836.7 0 812 0C787.3 0 762.7 0 738.2 0C713.7 0 689.3 0 664.8 0C640.3 0 615.7 0 591 0C566.3 0 541.7 0 517 0C492.3 0 467.7 0 443 0C418.3 0 393.7 0 369 0C344.3 0 319.7 0 295.2 0C270.7 0 246.3 0 221.8 0C197.3 0 172.7 0 148 0C123.3 0 98.7 0 74 0C49.3 0 24.7 0 12.3 0L0 0Z" fill="#bebee6"></path><path d="M0 8L12.3 9.5C24.7 11 49.3 14 74 14.2C98.7 14.3 123.3 11.7 148 9.7C172.7 7.7 197.3 6.3 221.8 5C246.3 3.7 270.7 2.3 295.2 1.7C319.7 1 344.3 1 369 3.5C393.7 6 418.3 11 443 12.5C467.7 14 492.3 12 517 9.3C541.7 6.7 566.3 3.3 591 3.7C615.7 4 640.3 8 664.8 8.7C689.3 9.3 713.7 6.7 738.2 6.8C762.7 7 787.3 10 812 10.2C836.7 10.3 861.3 7.7 886 6.7C910.7 5.7 935.3 6.3 947.7 6.7L960 7L960 0L947.7 0C935.3 0 910.7 0 886 0C861.3 0 836.7 0 812 0C787.3 0 762.7 0 738.2 0C713.7 0 689.3 0 664.8 0C640.3 0 615.7 0 591 0C566.3 0 541.7 0 517 0C492.3 0 467.7 0 443 0C418.3 0 393.7 0 369 0C344.3 0 319.7 0 295.2 0C270.7 0 246.3 0 221.8 0C197.3 0 172.7 0 148 0C123.3 0 98.7 0 74 0C49.3 0 24.7 0 12.3 0L0 0Z" fill="#babbe5"></path><path d="M0 11L12.3 9.3C24.7 7.7 49.3 4.3 74 3.3C98.7 2.3 123.3 3.7 148 4.3C172.7 5 197.3 5 221.8 4.2C246.3 3.3 270.7 1.7 295.2 1.2C319.7 0.7 344.3 1.3 369 1.3C393.7 1.3 418.3 0.7 443 1.5C467.7 2.3 492.3 4.7 517 4.7C541.7 4.7 566.3 2.3 591 2.7C615.7 3 640.3 6 664.8 6.7C689.3 7.3 713.7 5.7 738.2 5.5C762.7 5.3 787.3 6.7 812 6.2C836.7 5.7 861.3 3.3 886 2.8C910.7 2.3 935.3 3.7 947.7 4.3L960 5L960 0L947.7 0C935.3 0 910.7 0 886 0C861.3 0 836.7 0 812 0C787.3 0 762.7 0 738.2 0C713.7 0 689.3 0 664.8 0C640.3 0 615.7 0 591 0C566.3 0 541.7 0 517 0C492.3 0 467.7 0 443 0C418.3 0 393.7 0 369 0C344.3 0 319.7 0 295.2 0C270.7 0 246.3 0 221.8 0C197.3 0 172.7 0 148 0C123.3 0 98.7 0 74 0C49.3 0 24.7 0 12.3 0L0 0Z" fill="#b7b9e4"></path><path d="M0 2L12.3 2.7C24.7 3.3 49.3 4.7 74 5.2C98.7 5.7 123.3 5.3 148 4.3C172.7 3.3 197.3 1.7 221.8 2C246.3 2.3 270.7 4.7 295.2 4.7C319.7 4.7 344.3 2.3 369 2.2C393.7 2 418.3 4 443 4C467.7 4 492.3 2 517 2.3C541.7 2.7 566.3 5.3 591 5.3C615.7 5.3 640.3 2.7 664.8 1.5C689.3 0.3 713.7 0.7 738.2 1C762.7 1.3 787.3 1.7 812 2.2C836.7 2.7 861.3 3.3 886 3.7C910.7 4 935.3 4 947.7 4L960 4L960 0L947.7 0C935.3 0 910.7 0 886 0C861.3 0 836.7 0 812 0C787.3 0 762.7 0 738.2 0C713.7 0 689.3 0 664.8 0C640.3 0 615.7 0 591 0C566.3 0 541.7 0 517 0C492.3 0 467.7 0 443 0C418.3 0 393.7 0 369 0C344.3 0 319.7 0 295.2 0C270.7 0 246.3 0 221.8 0C197.3 0 172.7 0 148 0C123.3 0 98.7 0 74 0C49.3 0 24.7 0 12.3 0L0 0Z" fill="#b3b6e3"></path></svg>